<?xml version="1.0" standalone="no"?>
<!DOCTYPE svg PUBLIC "-//W3C//DTD SVG 20010904//EN"
 "http://www.w3.org/TR/2001/REC-SVG-20010904/DTD/svg10.dtd">
<svg version="1.0" xmlns="http://www.w3.org/2000/svg"
 width="300.000000pt" height="300.000000pt" viewBox="0 0 300.000000 300.000000"
 preserveAspectRatio="xMidYMid meet">
<metadata>
Created by potrace 1.10, written by Peter Selinger 2001-2011
</metadata>
<g transform="translate(0.000000,300.000000) scale(0.100000,-0.100000)"
fill="#000000" stroke="none">
<path d="M1028 2989 c-16 -9 -18 -30 -18 -199 0 -158 3 -191 16 -204 19 -19
36 -20 52 -4 17 17 17 389 0 406 -14 14 -27 15 -50 1z"/>
<path d="M1322 2988 c-8 -8 -12 -68 -12 -204 0 -160 3 -194 15 -204 12 -10 21
-10 40 -2 l25 12 0 194 c0 183 -1 196 -19 206 -25 13 -34 13 -49 -2z"/>
<path d="M1628 2989 c-16 -9 -18 -30 -18 -205 l0 -194 25 -12 c19 -8 28 -8 40
2 12 10 15 44 15 204 0 216 -7 238 -62 205z"/>
<path d="M1922 2988 c-17 -17 -17 -389 0 -406 16 -16 33 -15 52 4 13 13 16 46
16 204 0 177 -1 190 -19 200 -25 13 -34 13 -49 -2z"/>
<path d="M749 2427 c-90 -25 -160 -99 -179 -191 -7 -36 -10 -280 -8 -767 l3
-714 23 -47 c26 -53 77 -102 131 -127 32 -14 115 -16 781 -16 666 0 749 2 781
16 54 25 105 74 131 127 l23 47 0 745 0 745 -23 47 c-13 26 -40 61 -59 79 -77
67 -33 64 -833 66 -553 1 -736 -1 -771 -10z m1529 -56 c45 -23 87 -66 101
-104 8 -19 11 -270 11 -768 0 -598 -3 -746 -13 -772 -19 -45 -89 -104 -134
-114 -48 -10 -1436 -11 -1484 0 -20 4 -55 23 -78 43 -81 70 -76 10 -78 827 -2
802 -4 779 60 845 44 46 62 55 132 61 33 3 372 5 753 4 661 -3 694 -4 730 -22z"/>
<path d="M865 2251 c-22 -10 -54 -34 -72 -52 -65 -69 -63 -48 -63 -701 0 -662
-2 -635 71 -705 69 -65 48 -63 701 -63 554 0 596 2 634 19 49 23 107 88 122
140 16 51 17 1169 1 1224 -13 49 -73 115 -124 138 -37 17 -81 19 -635 19 -559
0 -597 -2 -635 -19z m1260 -40 c48 -22 69 -44 90 -94 23 -55 23 -1179 0 -1234
-21 -50 -42 -72 -90 -94 -37 -17 -79 -19 -623 -19 -502 0 -588 2 -619 15 -50
21 -72 42 -94 90 -17 37 -19 79 -19 623 0 502 2 588 15 619 21 50 42 72 90 94
37 17 79 19 625 19 546 0 588 -2 625 -19z"/>
<path d="M915 2141 c-11 -5 -29 -19 -40 -31 -20 -22 -20 -36 -20 -611 l0 -589
28 -27 27 -28 590 0 590 0 27 28 28 27 0 590 0 590 -28 27 -27 28 -578 2
c-317 1 -586 -2 -597 -6z m1173 -53 c9 -9 12 -154 12 -589 0 -524 -2 -578 -17
-590 -13 -12 -117 -14 -584 -14 -532 0 -569 1 -586 18 -17 17 -18 54 -18 586
0 467 2 571 14 584 12 15 66 17 590 17 435 0 580 -3 589 -12z"/>
<path d="M1350 1833 c-25 -24 -40 -63 -105 -274 -41 -135 -75 -253 -75 -263 0
-24 54 -76 78 -76 30 0 68 35 86 80 l16 40 59 0 60 0 20 -44 c32 -73 84 -92
133 -49 15 14 20 13 44 -6 36 -28 58 -27 94 7 l31 27 -1 264 c0 257 -1 266
-22 288 -12 13 -33 23 -49 23 -80 0 -89 -26 -89 -252 -1 -218 -2 -217 -79 37
-57 187 -81 225 -141 225 -18 0 -41 -10 -60 -27z m96 -21 c7 -4 47 -121 90
-260 83 -272 85 -287 28 -287 -26 0 -29 5 -43 58 l-15 57 -96 0 -96 0 -15 -57
c-14 -53 -17 -58 -43 -58 -56 0 -55 16 23 272 40 131 79 248 87 261 14 22 56
30 80 14z m295 -2 c18 -10 19 -24 19 -268 0 -271 -2 -282 -45 -282 -43 0 -45
11 -45 282 0 234 2 258 18 267 22 13 29 13 53 1z"/>
<path d="M1400 1693 c0 -10 -15 -69 -34 -130 l-33 -113 77 0 78 0 -34 111
c-19 61 -34 117 -34 125 0 7 -4 16 -10 19 -5 3 -10 -2 -10 -12z"/>
<path d="M8 1965 c-8 -19 -8 -28 2 -40 10 -12 44 -15 204 -15 192 0 216 4 216
36 0 7 -7 20 -16 28 -13 13 -46 16 -205 16 l-189 0 -12 -25z"/>
<path d="M2586 1974 c-9 -8 -16 -21 -16 -28 0 -32 24 -36 216 -36 160 0 194 3
204 15 10 12 10 21 2 40 l-12 25 -189 0 c-159 0 -192 -3 -205 -16z"/>
<path d="M10 1675 c-10 -12 -10 -21 -2 -40 l12 -25 195 0 195 0 12 25 c8 19 8
28 -2 40 -10 12 -44 15 -205 15 -161 0 -195 -3 -205 -15z"/>
<path d="M2580 1675 c-10 -12 -10 -21 -2 -40 l12 -25 195 0 195 0 12 25 c8 19
8 28 -2 40 -19 22 -391 22 -410 0z"/>
<path d="M8 1365 c-8 -19 -8 -28 2 -40 10 -12 44 -15 205 -15 161 0 195 3 205
15 10 12 10 21 2 40 l-12 25 -195 0 -195 0 -12 -25z"/>
<path d="M2578 1365 c-8 -19 -8 -28 2 -40 10 -12 44 -15 205 -15 161 0 195 3
205 15 10 12 10 21 2 40 l-12 25 -195 0 -195 0 -12 -25z"/>
<path d="M10 1075 c-10 -12 -10 -21 -2 -40 l12 -25 189 0 c159 0 192 3 205 16
9 8 16 21 16 28 0 32 -24 36 -216 36 -160 0 -194 -3 -204 -15z"/>
<path d="M2582 1078 c-16 -16 -15 -33 4 -52 13 -13 46 -16 205 -16 l189 0 12
25 c8 19 8 28 -2 40 -10 12 -44 15 -204 15 -136 0 -196 -4 -204 -12z"/>
<path d="M1026 414 c-13 -13 -16 -46 -16 -205 l0 -189 25 -12 c19 -8 28 -8 40
2 12 10 15 44 15 204 0 192 -4 216 -36 216 -7 0 -20 -7 -28 -16z"/>
<path d="M1322 418 c-8 -8 -12 -68 -12 -204 0 -160 3 -194 15 -204 12 -10 21
-10 40 -2 l25 12 0 194 c0 183 -1 196 -19 206 -25 13 -34 13 -49 -2z"/>
<path d="M1628 419 c-16 -9 -18 -30 -18 -205 l0 -194 25 -12 c19 -8 28 -8 40
2 12 10 15 44 15 204 0 216 -7 238 -62 205z"/>
<path d="M1922 418 c-8 -8 -12 -68 -12 -204 0 -160 3 -194 15 -204 12 -10 21
-10 40 -2 l25 12 0 189 c0 159 -3 192 -16 205 -19 19 -36 20 -52 4z"/>
</g>
</svg>
